# AST/ASF file generated using VICON BodyLanguage
# -----------------------------------------------
:version 1.10
:name VICON
:units
  mass 1.0
  length 0.45
  angle deg
:documentation
   .ast/.asf automatically generated from VICON data using
   VICON BodyBuilder and BodyLanguage model FoxedUp or BRILLIANT.MOD
:root
   order TX TY TZ RX RY RZ
   axis XYZ
   position 0 0 0  
   orientation 0 0 0 
:bonedata
  begin
     id 1 
     name lhipjoint
     direction 0.692814 -0.645514 0.321437 
     length 2.38754 
     axis 0 0 0  XYZ
  end
  begin
     id 2 
     name lfemur
     direction 0.34202 -0.939693 0  
     length 6.41921  
     axis 0 0 20  XYZ
    dof rx ry rz
    limits (-160.0 20.0)
           (-70.0 70.0)
           (-60.0 70.0)
  end
  begin
     id 3 
     name ltibia
     direction 0.34202 -0.939693 0   
     length 6.98247   
     axis 0 0 20   XYZ
    dof rx
    limits (-10.0 170.0)
  end
  begin
     id 4 
     name lfoot
     direction 0.0947186 -0.260237 0.960888   
     length 1.83034   
     axis -90 7.62852e-016 20   XYZ
    dof rx rz
    limits (-45.0 90.0)
           (-70.0 20.0)
  end
  begin
     id 5 
     name ltoes
     direction 1.53538e-011 -4.21952e-011 1   
     length 0.920499   
     axis -90 7.62852e-016 20   XYZ
    dof rx
    limits (-90.0 20.0)
  end
  begin
     id 6 
     name rhipjoint
     direction -0.631686 -0.693949 0.345555   
     length 2.2209  
     axis 0 0 0  XYZ 
  end
  begin
     id 7 
     name rfemur
     direction -0.34202 -0.939693 0   
     length 6.49542   
     axis 0 0 -20   XYZ
    dof rx ry rz
    limits (-160.0 20.0)
           (-70.0 70.0)
           (-70.0 60.0)
  end
  begin
     id 8 
     name rtibia
     direction -0.34202 -0.939693 0   
     length 7.21712   
     axis 0 0 -20   XYZ
    dof rx
    limits (-10.0 170.0)
 end
 begin
     id 9 
     name rfoot
     direction -0.0825378 -0.226771 0.970444   
     length 1.89724  
     axis -90 -7.62852e-016 -20   XYZ
    dof rx rz
    limits (-45.0 90.0)
           (-20.0 70.0)
  end
  begin
     id 10 
     name rtoes
     direction -1.53515e-011 -4.22016e-011 1   
     length 0.955868   
     axis -90 -7.62852e-016 -20   XYZ
    dof rx
    limits (-90.0 20.0)
  end
  begin
     id 11 
     name lowerback
     direction -0.0104711 0.984802 -0.173368   
     length 1.84931   
     axis 0 0 0   XYZ
    dof rx ry rz
    limits (-20.0 45.0)
           (-30.0 30.0)
           (-30.0 30.0)
  end
  begin
     id 12 
     name upperback
     direction -0.00286433 0.999996 -0.000382853   
     length 1.85768   
     axis 0 0 0   XYZ
    dof rx ry rz
    limits (-20.0 45.0)
           (-30.0 30.0)
           (-30.0 30.0)
  end
  begin
     id 13 
     name thorax
     direction 0.00167534 0.996793 0.0800069   
     length 1.92   
     axis 0 0 0   XYZ
    dof rx ry rz
    limits (-20.0 45.0)
           (-30.0 30.0)
           (-30.0 30.0)
  end
  begin
     id 14 
     name lowerneck
     direction -0.0672491 0.995415 0.068018   
     length 1.58923   
     axis 0 0 0   XYZ
    dof rx ry rz
    limits (-20.0 45.0)
           (-30.0 30.0)
           (-30.0 30.0)
  end
  begin
     id 15 
     name upperneck
     direction 0.0958019 0.982476 -0.159884   
     length 1.60189   
     axis 0 0 0   XYZ
    dof rx ry rz
    limits (-20.0 45.0)
           (-30.0 30.0)
           (-30.0 30.0)
  end
  begin
     id 16
     name head
     direction 0.032989 0.997338 -0.0650226  
     length 1.61681  
     axis 0 0 0   XYZ
    dof rx ry rz
    limits (-20.0 45.0)
           (-30.0 30.0)
           (-30.0 30.0)
  end
  begin
     id 17 
     name lclavicle
     direction 0.954279 0.298875 -0.00496069  
     length 2.99449  
     axis 0 0 0   XYZ
    dof ry rz
    limits (-20.0 10.0)
           (0.0 20.0)
  end
  begin
     id 18 
     name lhumerus
     direction 1 -4.48985e-011 -4.2057e-027   
     length 4.79185   
     axis 180 -30 -90   XYZ
    dof rx ry rz
    limits (-60.0 90.0)
           (-90.0 90.0)
           (-90.0 90.0)
  end
  begin
     id 19
     name lradius
     direction 1 -4.48945e-011 1.15441e-028   
     length 2.65553   
     axis 180 -30 -90   XYZ
    dof rx
    limits (-10.0 170.0)
  end
  begin
     id 20
     name lwrist
     direction 1 -4.4899e-011 4.8894e-028   
     length 1.32777   
     axis -2.56392e-016 90 90   XYZ
    dof ry
    limits (-180.0 0.0)
 end
  begin
     id 21 
     name lhand
     direction 1 -4.48908e-011 9.7788e-028   
     length 0.743904   
     axis -6.23971e-016 90 90   XYZ
    dof rx rz
    limits (-90.0 90.0)
           (-45.0 45.0)
  end
  begin
     id 22 
     name lfingers
     direction 1 -4.49068e-011 1.95576e-027   
     length 0.599754   
     axis -1.24794e-015 90 90   XYZ
    dof rx
    limits (0.0 90.0)
  end
  begin
     id 23
     name lthumb
     direction 0.707107 -6.34883e-011 0.707107   
     length 0.861131   
     axis -90 45 2.85299e-015   XYZ
    dof rx rz
    limits (-45.0 45.0)
           (-45.0 45.0)
  end
  begin
     id 24 
     name rclavicle
     direction -0.957921 0.286916 0.00811568   
     length 3.06817  
     axis 0 0 0   XYZ 
    dof ry rz
    limits (-10.0 20.0)
           (-20.0 0.0)
  end
  begin
     id 25 
     name rhumerus
     direction -1 -4.48971e-011 -3.07942e-027  
     length 4.77254   
     axis 180 30 90   XYZ
    dof rx ry rz
    limits (-90.0 60.0)
           (-90.0 90.0)
           (-90.0 90.0)
  end
  begin
     id 26 
     name rradius
     direction -1 -4.48957e-011 -9.6815e-028   
     length 2.75995   
     axis 180 30 90   XYZ
    dof rx
    limits (-10.0 170.0)
  end
  begin
     id 27 
     name rwrist
     direction -1 -4.48979e-011 4.8894e-028   
     length 1.37997   
     axis -2.56392e-016 -90 -90   XYZ
    dof ry
    limits (-180.0 0.0)
  end
  begin
     id 28
     name rhand
     direction -1 -4.48906e-011 9.7788e-028   
     length 0.701619   
     axis -6.23971e-016 -90 -90   XYZ
    dof rx rz
    limits (-90.0 90.0)
           (-45.0 45.0)
  end
  begin
     id 29
     name rfingers
     direction -1 -4.49018e-011 1.95576e-027   
     length 0.565663   
     axis -1.24794e-015 -90 -90   XYZ
    dof rx
    limits (0.0 90.0)
  end
  begin
     id 30
     name rthumb
     direction -0.707107 -6.34881e-011 0.707107   
     length 0.812183   
     axis -90 -45 -2.85299e-015   XYZ
    dof rx rz
    limits (-45.0 45.0)
           (-45.0 45.0)
  end
:hierarchy
  begin
    root lhipjoint rhipjoint lowerback
    lhipjoint lfemur
    lfemur ltibia
    ltibia lfoot
    lfoot ltoes
    rhipjoint rfemur
    rfemur rtibia
    rtibia rfoot
    rfoot rtoes
    lowerback upperback
    upperback thorax
    thorax lowerneck lclavicle rclavicle
    lowerneck upperneck
    upperneck head
    lclavicle lhumerus
    lhumerus lradius
    lradius lwrist
    lwrist lhand lthumb
    lhand lfingers
    rclavicle rhumerus
    rhumerus rradius
    rradius rwrist
    rwrist rhand rthumb
    rhand rfingers
  end

#!OML:ASF F:\VICON\USERDATA\INSTALL\rory3\rory3.ASF
:FULLY-SPECIFIED
:DEGREES
810
root 0.197631 16.1588 0.0464894 -0.105822 -1.49012 -0.750786
lowerback 8.69402 0.409087 -1.67716
upperback -1.06561 0.344743 -0.341135
thorax -6.0054 0.219708 0.540021
lowerneck -14.5535 -8.35644 -12.3923
upperneck 29.8619 -10.4889 5.59172
head 13.5042 -5.32949 2.55901
rclavicle -8.74653e-015 8.34896e-015
rhumerus -21.0378 47.4132 -76.445
rradius 85.7047
rwrist -12.9783
rhand -11.138 14.9885
rfingers 7.12502
rthumb 14.8875 -14.4565
lclavicle -8.74653e-015 8.34896e-015
lhumerus -41.2284 -35.8623 96.7019
lradius 85.4138
lwrist 17.3847
lhand -3.10064 14.5783
lfingers 7.12502
lthumb 22.6174 43.2732
rfemur 0.0141619 11.1818 17.9219
rtibia 13.4944
rfoot -10.3405 -10.2051
rtoes -5.84449
lfemur 7.14169 -9.92204 -16.6059
ltibia -1.74931e-014
lfoot -3.91465 10.4462
ltoes -10.156
811
root 0.198321 16.1602 0.0406592 -0.0453366 -1.59734 -0.782288
lowerback 8.67455 0.43036 -1.65822
upperback -1.1488 0.372193 -0.380679
thorax -6.08224 0.232805 0.483958
lowerneck -14.6414 -8.4095 -12.531
upperneck 30.1208 -10.6127 5.82146
head 13.6737 -5.36996 2.64794
rclavicle 4.12478e-015 3.18055e-015
rhumerus -18.176 46.7513 -73.6609
rradius 86.6821
rwrist -12.2579
rhand -11.3362 15.2723
rfingers 7.12502
rthumb 14.6966 -14.1868
lclavicle 4.12478e-015 3.18055e-015
lhumerus -41.1451 -35.9591 96.5072
lradius 84.809
lwrist 14.1339
lhand -4.27688 14.0794
lfingers 7.12502
lthumb 21.4881 42.9076
rfemur -0.0672019 11.3199 17.9388
rtibia 13.4232
rfoot -10.2815 -10.2363
rtoes -5.71215
lfemur 6.51346 -9.8138 -16.583
ltibia 1.08234
lfoot -4.44534 10.3692
ltoes -9.78813
812
root 0.199135 16.1608 0.036869 -0.0174921 -1.66266 -0.780585
lowerback 8.65977 0.434232 -1.66692
upperback -1.24289 0.37308 -0.421813
thorax -6.17292 0.233853 0.445318
lowerneck -14.3975 -8.35676 -12.2281
upperneck 30 -10.5675 5.58298
head 13.5255 -5.35282 2.52109
rclavicle -2.39163e-015 3.97569e-016
rhumerus -15.3861 45.9996 -70.9595
rradius 87.5502
rwrist -11.4759
rhand -11.4482 15.5525
rfingers 7.12502
rthumb 14.5887 -13.9144
lclavicle -2.39163e-015 3.97569e-016
lhumerus -41.0616 -36.023 96.3388
lradius 84.0247
lwrist 10.8863
lhand -5.23333 13.7604
lfingers 7.12502
lthumb 20.5692 42.6906
rfemur -0.102257 11.4454 17.9309
rtibia 13.3572
rfoot -10.1794 -10.3024
rtoes -5.97448
lfemur 6.18689 -9.74956 -16.592
ltibia 1.6465
lfoot -4.7088 10.3256
ltoes -9.75788
813
root 0.200801 16.1597 0.0322714 -0.0439453 -1.63157 -0.781137
lowerback 8.69738 0.390767 -1.66166
upperback -1.28877 0.312331 -0.453354
thorax -6.2413 0.203877 0.417367
lowerneck -14.2434 -8.32392 -11.9343
upperneck 29.9011 -10.5294 5.31894
head 13.4067 -5.34073 2.38191
rclavicle -5.77718e-015 7.15625e-015
rhumerus -12.4397 45.1328 -68.251
rradius 88.3298
rwrist -10.753
rhand -11.5233 15.4596
rfingers 7.12502
rthumb 14.5164 -14.0126
lclavicle -5.77718e-015 7.15625e-015
lhumerus -40.8992 -36.0047 96.1534
lradius 83.0301
lwrist 7.71695
lhand -6.20847 13.4172
lfingers 7.12502
lthumb 19.6319 42.4459
rfemur -0.0702293 11.4262 17.9276
rtibia 13.3249
rfoot -10.138 -10.3124
rtoes -5.92187
lfemur 6.21726 -9.78504 -16.5991
ltibia 1.59022
lfoot -4.68607 10.3494
ltoes -9.95674
814
root 0.203186 16.1586 0.0259357 -0.138707 -1.56437 -0.782953
lowerback 8.81552 0.342563 -1.63515
upperback -1.30697 0.245495 -0.49528
thorax -6.32615 0.169895 0.36728
lowerneck -14.166 -8.33562 -11.8555
upperneck 29.9048 -10.5765 5.30627
head 13.39 -5.35674 2.35858
rclavicle -3.87009e-015 3.57812e-015
rhumerus -9.4277 43.9532 -65.5647
rradius 88.9891
rwrist -9.88732
rhand -11.1808 15.531
rfingers 7.12502
rthumb 14.8463 -13.9171
lclavicle -3.87009e-015 3.57812e-015
lhumerus -40.7205 -36.1624 95.9839
lradius 81.9883
lwrist 4.82581
lhand -7.31721 13.0476
lfingers 7.12502
lthumb 18.5657 42.1817
rfemur 0.0411108 11.3614 17.9279
rtibia 13.2904
rfoot -10.1858 -10.2841
rtoes -5.26744
lfemur 6.32867 -9.86016 -16.6236
ltibia 1.50368
lfoot -4.64509 10.3479
ltoes -10.0646
815
root 0.205755 16.1588 0.0214171 -0.239633 -1.55656 -0.750916
lowerback 8.87208 0.336119 -1.64217
upperback -1.29699 0.231583 -0.549866
thorax -6.3474 0.162336 0.315846
lowerneck -14.1793 -8.3898 -11.9893
upperneck 30.0527 -10.7021 5.5261
head 13.4941 -5.39957 2.44376
rclavicle -4.94477e-015 -1.59028e-015
rhumerus -6.54343 42.3782 -63.0002
rradius 89.5444
rwrist -8.78171
rhand -10.6016 15.9556
rfingers 7.12502
rthumb 15.4042 -13.4505
lclavicle -4.94477e-015 -1.59028e-015
lhumerus -40.5532 -36.5119 95.8865
lradius 80.9482
lwrist 2.20442
lhand -8.27062 12.6718
lfingers 7.12502
lthumb 17.6484 41.8909
rfemur 0.172351 11.3257 17.8994
rtibia 13.252
rfoot -10.1933 -10.2487
rtoes -5.15278
lfemur 6.45321 -9.8758 -16.688
ltibia 1.46238
lfoot -4.63782 10.3394
ltoes -10.1148
